<svg xmlns="http://www.w3.org/2000/svg" width="67.008" height="67.009" viewBox="0 0 67.008 67.009">
  <g id="Instagram" transform="translate(0 0)">
    <path id="Trazado_410" data-name="Trazado 410" d="M444.536,1198.73a2.309,2.309,0,1,1,2.309-2.309h0a2.309,2.309,0,0,1-2.3,2.311Z" transform="translate(-400.771 -1173.189)" fill="#969ba9"/>
    <path id="Trazado_15" data-name="Trazado 15" d="M419.318,1165.64a33.5,33.5,0,1,0,33.5,33.5A33.5,33.5,0,0,0,419.318,1165.64Zm19.122,41.435a14.111,14.111,0,0,1-.894,4.67,9.834,9.834,0,0,1-5.628,5.627,14.107,14.107,0,0,1-4.67.895c-2.051.093-2.706.117-7.931.117s-5.88-.022-7.933-.117a14.114,14.114,0,0,1-4.671-.895,9.834,9.834,0,0,1-5.627-5.627,14.091,14.091,0,0,1-.894-4.67c-.095-2.052-.117-2.708-.117-7.932s.022-5.88.117-7.931a14.1,14.1,0,0,1,.894-4.671,9.844,9.844,0,0,1,5.629-5.625,14.141,14.141,0,0,1,4.67-.894c2.051-.093,2.706-.116,7.931-.116s5.88.022,7.931.116a14.124,14.124,0,0,1,4.67.893,9.837,9.837,0,0,1,5.628,5.627,14.117,14.117,0,0,1,.894,4.671c.093,2.05.116,2.706.116,7.931S438.535,1205.024,438.441,1207.075Z" transform="translate(-385.814 -1165.64)" fill="#969ba9"/>
    <path id="Trazado_411" data-name="Trazado 411" d="M427.84,1197.813a9.869,9.869,0,0,0,0,19.739h0a9.87,9.87,0,0,0,0-19.74Zm6.421,9.862a6.413,6.413,0,1,1-6.417-6.413,6.413,6.413,0,0,1,6.417,6.413Z" transform="translate(-394.34 -1174.17)" fill="#969ba9"/>
  </g>
</svg>
