<svg id="Logo_GOES_horizontal" xmlns="http://www.w3.org/2000/svg" width="283.787" height="47.947" viewBox="0 0 283.787 47.947">
  <g id="Capa_1" data-name="Capa 1">
    <path id="Trazado_417" data-name="Trazado 417" d="M9.715,53.738a11.115,11.115,0,0,1-4.421,1.039A5.091,5.091,0,0,1,0,49.581,5.5,5.5,0,0,1,5.755,44a14.015,14.015,0,0,1,3.281.558.578.578,0,0,0,.388-.112h.233v2.668H9.308A3.16,3.16,0,0,0,5.926,44.4c-2.893.019-4.375,2.428-4.375,5.081,0,3.382,2.374,4.883,4.266,4.883a5.558,5.558,0,0,0,2.525-.624V51.66c0-.942-.33-1.253-1.319-1.253H6.415v-.3h4.445v.3c-.822.047-1.163.33-1.163,1.039Z" transform="translate(0 -26.935)" fill="#c5c8d0"/>
    <path id="Trazado_418" data-name="Trazado 418" d="M33.853,54.778c-3.231,0-5.953-2.079-5.953-5.162C27.9,46.327,30.425,44,33.939,44c3.1,0,5.786,2.125,5.786,5.1A5.679,5.679,0,0,1,33.853,54.778Zm-.345-10.359c-2.9,0-4.057,2.715-4.057,4.685,0,3.1,2.094,5.259,4.751,5.259s3.971-2.374,3.971-4.716C38.174,46.579,36.231,44.419,33.508,44.419Z" transform="translate(-17.08 -26.935)" fill="#c5c8d0"/>
    <path id="Trazado_419" data-name="Trazado 419" d="M59.243,46.166c0-.939-.112-1.435-1.268-1.435H57.4v-.31c.462,0,1.6-.085,2.079-.1.908-.031,2.16-.05,2.474-.05a6.482,6.482,0,0,1,3.316.644,2.094,2.094,0,0,1,1,1.831,2.164,2.164,0,0,1-1.881,2.013v.031a2.973,2.973,0,0,1,2.459,2.757,3.208,3.208,0,0,1-3.564,3.134H57.25v-.314h.388c1.35,0,1.613-.314,1.613-1.354Zm1.369,2.54h1.8c1.582,0,2.374-.624,2.374-1.912,0-1.163-.69-2.211-2.715-2.211-.365,0-1.039.035-1.454.05Zm0,3.828c0,1.253.5,1.7,1.881,1.7a2.46,2.46,0,0,0,2.8-2.641,2.635,2.635,0,0,0-2.9-2.571H60.612Z" transform="translate(-35.047 -27.101)" fill="#c5c8d0"/>
    <path id="Trazado_420" data-name="Trazado 420" d="M86.776,54.918H82.77V54.6c1.02-.05,1.237-.314,1.237-1.419V46.157c0-.888-.314-1.136-1.237-1.187v-.31h4.006v.31c-1.039,0-1.4.233-1.4,1.338v6.981c0,.973.264,1.3,1.4,1.3Z" transform="translate(-50.669 -27.339)" fill="#c5c8d0"/>
    <path id="Trazado_421" data-name="Trazado 421" d="M101.8,51.207h-.31c-.132-1.163-.446-1.3-1.121-1.3H97.582v3.514c0,.776.283.908.892.908h2.54c1.164,0,1.5-.446,1.912-1.865h.3l-.264,2.459H94.2V54.6h.462c1.319,0,1.551-.365,1.551-1.354V46.293c0-.927-.213-1.323-1.319-1.323h-.361v-.31h7.916l.132,2.292h-.314c-.213-1.4-.624-1.7-1.218-1.7h-3.49V49.31h2.955c.593,0,.873-.283.954-1.237h.314Z" transform="translate(-57.666 -27.339)" fill="#c5c8d0"/>
    <path id="Trazado_422" data-name="Trazado 422" d="M119.738,53.128c0,.989.388,1.237,1.319,1.237h.388v.314H116.79v-.314h.279c.973,0,1.319-.264,1.319-1.369V46.054c0-1.024-.279-1.322-1.237-1.322h-.361v-.31c.388,0,1.4-.066,2.079-.1s1-.05,2.075-.05c3.052,0,4.421,1.253,4.421,2.936a2.815,2.815,0,0,1-2.2,2.672,19.811,19.811,0,0,1,1.846,1.714l1.3,1.3a4.971,4.971,0,0,0,3.25,1.668v.295c-2.885.132-3.63-.493-5.1-1.962l-1.09-1.086a12.217,12.217,0,0,0-1.7-1.47c-.411,0-.675.035-1.121.035a6.017,6.017,0,0,1-.842-.035Zm0-3.1a7.024,7.024,0,0,0,1.024.035c1.831,0,3.033-.776,3.033-2.754,0-1.551-.69-2.715-3.231-2.715a6.419,6.419,0,0,0-.826.035Z" transform="translate(-71.495 -27.101)" fill="#c5c8d0"/>
    <path id="Trazado_423" data-name="Trazado 423" d="M156.833,55.44,148.3,46.5v7.062c0,1.187.264,1.435,1.668,1.435v.314H146.14V55h.066c1.024,0,1.354-.345,1.354-1.105V45.806a2.409,2.409,0,0,0-1.385-.411v-.314h2.587l7.757,8.094V46.582c0-1-.295-1.187-1.617-1.218V45.05h3.878v.314c-1.237,0-1.5.213-1.5.857V55.44Z" transform="translate(-89.463 -27.578)" fill="#c5c8d0"/>
    <path id="Trazado_424" data-name="Trazado 424" d="M183.653,54.778c-3.234,0-5.953-2.079-5.953-5.162,0-3.289,2.521-5.616,6.035-5.616,3.1,0,5.79,2.125,5.79,5.1A5.679,5.679,0,0,1,183.653,54.778ZM183.3,44.419c-2.9,0-4.057,2.715-4.057,4.685,0,3.1,2.094,5.259,4.751,5.259s3.975-2.374,3.975-4.716c0-3.068-1.947-5.228-4.669-5.228Z" transform="translate(-108.783 -26.935)" fill="#c5c8d0"/>
    <path id="Trazado_425" data-name="Trazado 425" d="M220.056,46.07c0-1.074-.283-1.338-1.257-1.338h-.33v-.31c.613-.035,1.419-.066,2.327-.1s1.912-.05,2.769-.05c4.355,0,6.287,2.211,6.287,4.933,0,2.49-1.939,5.476-6.1,5.476H218.47v-.314h.283c.888,0,1.3-.248,1.3-1.206Zm1.369,7.369c0,.675.047.908,1.35.908,2.211,0,3.134-.314,4.158-1.338a5.088,5.088,0,0,0,1.369-3.56,4.968,4.968,0,0,0-1.319-3.549c-.776-.776-1.939-1.334-4.239-1.334-.679,0-1.121.05-1.319.066Z" transform="translate(-133.741 -27.101)" fill="#c5c8d0"/>
    <path id="Trazado_426" data-name="Trazado 426" d="M254.491,51.207h-.314c-.132-1.163-.446-1.3-1.121-1.3h-2.788v3.514c0,.776.283.908.892.908h2.54c1.163,0,1.5-.446,1.912-1.865h.3l-.264,2.459H246.89V54.6h.462c1.319,0,1.551-.365,1.551-1.354V46.293c0-.927-.213-1.323-1.319-1.323h-.361v-.31h7.916l.132,2.292h-.3c-.213-1.4-.624-1.7-1.218-1.7h-3.49V49.31h2.955c.593,0,.873-.283.954-1.237h.314Z" transform="translate(-151.139 -27.339)" fill="#c5c8d0"/>
    <path id="Trazado_427" data-name="Trazado 427" d="M473.325,50.417h-.314c-.132-1.163-.446-1.3-1.121-1.3H469.1v3.514c0,.776.283.908.892.908h2.54c1.163,0,1.5-.446,1.912-1.865h.3l-.268,2.459H465.72v-.314h.462c1.323,0,1.551-.361,1.551-1.354V45.5c0-.923-.213-1.319-1.319-1.319h-.365V43.87h7.923l.132,2.292h-.3c-.213-1.4-.624-1.7-1.222-1.7h-3.49V48.52h2.951c.593,0,.876-.279.958-1.237h.314Z" transform="translate(-285.1 -26.856)" fill="#c5c8d0"/>
    <path id="Trazado_428" data-name="Trazado 428" d="M497.809,54.128H490.44v-.314h.543c.776,0,1.039-.248,1.039-1.09v-7.3c0-.876-.264-1.237-1.3-1.237h-.233V43.87h4.867v.314h-.613c-1.07,0-1.35.112-1.35,1.136v7.6c0,.446.178.613.659.613h2.424c.973,0,1.268-.388,2.308-1.815h.3Z" transform="translate(-300.232 -26.856)" fill="#c5c8d0"/>
    <path id="Trazado_429" data-name="Trazado 429" d="M524.51,51.249a2.862,2.862,0,0,0,2.789,2.327,2.07,2.07,0,0,0,2.277-1.939c0-2.374-5.294-3.1-5.294-5.984,0-1.369,1.253-2.393,2.936-2.393a11.119,11.119,0,0,1,2.242.411.318.318,0,0,0,.3-.163h.264L530.3,45.6h-.279a2.917,2.917,0,0,0-2.657-1.939,1.636,1.636,0,0,0-1.846,1.551c0,2.327,5.294,2.967,5.294,6,0,1.613-1.435,2.82-3.366,2.82a13.489,13.489,0,0,1-2.292-.446.388.388,0,0,0-.33.182h-.279l-.345-2.505Z" transform="translate(-320.899 -26.482)" fill="#c5c8d0"/>
    <path id="Trazado_430" data-name="Trazado 430" d="M545.564,49.183l-.954,2.591a4.584,4.584,0,0,0-.33,1.039c0,.446.427.609,1.334.609h.264v.314H542.07v-.314c1.07,0,1.253-.2,1.78-1.633l3-8.195-.147-.365h1.435l3.448,9.153a1.294,1.294,0,0,0,1.5,1.039v.314h-4.538v-.314h.431c.939,0,1.284-.1,1.284-.558a1.838,1.838,0,0,0-.178-.679l-1.105-3Zm1.683-4.569-1.4,3.843H548.7Z" transform="translate(-331.839 -26.464)" fill="#c5c8d0"/>
    <path id="Trazado_431" data-name="Trazado 431" d="M577.649,54.128H570.28v-.314h.543c.776,0,1.039-.248,1.039-1.09v-7.3c0-.876-.264-1.237-1.3-1.237h-.229V43.87h4.863v.314h-.609c-1.074,0-1.354.112-1.354,1.136v7.6c0,.446.182.613.659.613h2.424c.973,0,1.272-.388,2.327-1.815h.295Z" transform="translate(-349.108 -26.856)" fill="#c5c8d0"/>
    <path id="Trazado_432" data-name="Trazado 432" d="M590.723,54.367l-3.576-8.92c-.415-1.039-.613-1.284-1.617-1.284v-.314h4.534v.314c-1.516.031-1.877.388-1.551,1.136l2.971,7.369,2.606-6.81a3.256,3.256,0,0,0,.279-1.024c0-.493-.411-.69-1.551-.69V43.83h3.828v.314c-.857,0-1.3.388-1.7,1.416l-3.4,8.808Z" transform="translate(-358.444 -26.831)" fill="#c5c8d0"/>
    <path id="Trazado_433" data-name="Trazado 433" d="M612.758,49.183l-.958,2.591a4.584,4.584,0,0,0-.33,1.039c0,.446.43.609,1.338.609h.264v.314H609.26v-.314c1.074,0,1.253-.2,1.78-1.633l3.006-8.195-.151-.365h1.435l3.448,9.153a1.3,1.3,0,0,0,1.5,1.039v.314h-4.526v-.314h.43c.939,0,1.288-.1,1.288-.558a1.834,1.834,0,0,0-.182-.679l-1.105-3Zm1.679-4.569-1.4,3.843h2.854Z" transform="translate(-372.97 -26.464)" fill="#c5c8d0"/>
    <path id="Trazado_434" data-name="Trazado 434" d="M638.832,45.286c0-1.07-.279-1.334-1.253-1.334h-.33v-.314c.609-.035,1.416-.066,2.327-.1s1.916-.047,2.773-.047c4.351,0,6.283,2.207,6.283,4.929,0,2.49-1.939,5.476-6.1,5.476H637.25v-.314h.291c.892,0,1.3-.248,1.3-1.2Zm1.369,7.388c0,.679.05.908,1.354.908,2.207,0,3.134-.314,4.154-1.334a5.081,5.081,0,0,0,1.369-3.564,4.964,4.964,0,0,0-1.319-3.545c-.776-.776-1.939-1.338-4.239-1.338-.675,0-1.121.05-1.319.066Z" transform="translate(-390.105 -26.623)" fill="#c5c8d0"/>
    <path id="Trazado_435" data-name="Trazado 435" d="M674.423,54c-3.231,0-5.953-2.079-5.953-5.162,0-3.281,2.525-5.608,6.035-5.608,3.1,0,5.79,2.129,5.79,5.1A5.659,5.659,0,0,1,674.423,54Zm-.345-10.359c-2.9,0-4.057,2.715-4.057,4.685,0,3.083,2.094,5.263,4.751,5.263s3.987-2.377,3.987-4.72C678.759,45.8,676.82,43.641,674.078,43.641Z" transform="translate(-409.217 -26.464)" fill="#c5c8d0"/>
    <path id="Trazado_436" data-name="Trazado 436" d="M701.634,52.344c0,.989.388,1.237,1.323,1.237h.388V53.9H698.69v-.314h.279c.973,0,1.319-.264,1.319-1.369V45.27c0-1.024-.279-1.319-1.237-1.319h-.361v-.314c.388,0,1.4-.066,2.079-.1s1-.047,2.079-.047c3.048,0,4.417,1.253,4.417,2.936a2.815,2.815,0,0,1-2.191,2.668,19.932,19.932,0,0,1,1.877,1.718l1.3,1.3a4.974,4.974,0,0,0,3.25,1.664v.3c-2.885.132-3.626-.5-5.1-1.962l-1.09-1.09a12.123,12.123,0,0,0-1.7-1.466c-.411,0-.675.031-1.121.031a6.794,6.794,0,0,1-.842-.031Zm0-3.1a7.6,7.6,0,0,0,1.024.031c1.831,0,3.037-.776,3.037-2.754,0-1.551-.694-2.715-3.234-2.715a6.419,6.419,0,0,0-.826.035Z" transform="translate(-427.717 -26.623)" fill="#c5c8d0"/>
    <path id="Trazado_437" data-name="Trazado 437" d="M367.113,0l.659,1.334,1.474.217L368.18,2.591l.252,1.466-1.319-.69-1.319.69.252-1.466L364.98,1.551l1.474-.217Z" transform="translate(-223.43)" fill="#c5c8d0"/>
    <path id="Trazado_438" data-name="Trazado 438" d="M392.1,6.38l.659,1.334,1.478.217-1.067,1.039.252,1.466L392.1,9.742l-1.319.694.252-1.466L389.97,7.931l1.474-.217Z" transform="translate(-238.728 -3.906)" fill="#c5c8d0"/>
    <path id="Trazado_439" data-name="Trazado 439" d="M411.273,21.89l.659,1.338,1.474.213-1.067,1.039.252,1.466-1.319-.69-1.319.69.252-1.466-1.067-1.039,1.474-.213Z" transform="translate(-250.463 -13.4)" fill="#c5c8d0"/>
    <path id="Trazado_440" data-name="Trazado 440" d="M422.223,44.1l.659,1.338,1.474.213-1.067,1.039.252,1.466-1.319-.69-1.319.69.252-1.466-1.067-1.039,1.474-.213Z" transform="translate(-257.166 -26.997)" fill="#c5c8d0"/>
    <path id="Trazado_441" data-name="Trazado 441" d="M422.643,69.88l.659,1.334,1.474.217-1.067,1.039.252,1.466-1.319-.694-1.319.694.252-1.466-1.067-1.039,1.474-.217Z" transform="translate(-257.423 -42.778)" fill="#c5c8d0"/>
    <path id="Trazado_442" data-name="Trazado 442" d="M411.293,92.19l.659,1.338,1.478.213-1.07,1.039.252,1.47-1.319-.694-1.319.694.252-1.47-1.067-1.039,1.474-.213Z" transform="translate(-250.475 -56.436)" fill="#c5c8d0"/>
    <path id="Trazado_443" data-name="Trazado 443" d="M392.223,107.72l.663,1.334,1.474.213-1.066,1.039.252,1.47-1.323-.694-1.319.694.252-1.47-1.067-1.039,1.474-.213Z" transform="translate(-238.801 -65.943)" fill="#c5c8d0"/>
    <path id="Trazado_444" data-name="Trazado 444" d="M367.1,113.17l.659,1.334,1.474.217-1.066,1.036.252,1.47-1.319-.694-1.319.694.252-1.47-1.066-1.036,1.474-.217Z" transform="translate(-223.424 -69.279)" fill="#c5c8d0"/>
    <path id="Trazado_445" data-name="Trazado 445" d="M342.533,107.73l.659,1.338,1.474.213-1.067,1.039.252,1.47-1.319-.694-1.319.694.252-1.47-1.067-1.039,1.474-.213Z" transform="translate(-208.382 -65.949)" fill="#c5c8d0"/>
    <path id="Trazado_446" data-name="Trazado 446" d="M323.453,92.22l.659,1.338,1.474.213-1.067,1.039.252,1.466-1.319-.69-1.319.69.252-1.466-1.067-1.039,1.474-.213Z" transform="translate(-196.702 -56.454)" fill="#c5c8d0"/>
    <path id="Trazado_447" data-name="Trazado 447" d="M312.093,70.05l.659,1.334,1.474.213-1.067,1.039.252,1.47-1.319-.694-1.319.694.252-1.47L309.96,71.6l1.474-.213Z" transform="translate(-189.748 -42.882)" fill="#c5c8d0"/>
    <path id="Trazado_448" data-name="Trazado 448" d="M312.093,44.1l.659,1.338,1.474.213-1.067,1.039.252,1.466-1.319-.69-1.319.69.252-1.466-1.067-1.039,1.474-.213Z" transform="translate(-189.748 -26.997)" fill="#c5c8d0"/>
    <path id="Trazado_449" data-name="Trazado 449" d="M322.873,21.92l.659,1.334,1.478.217-1.067,1.039.248,1.466-1.319-.69-1.319.69.252-1.466-1.067-1.039,1.474-.217Z" transform="translate(-196.347 -13.419)" fill="#c5c8d0"/>
    <path id="Trazado_450" data-name="Trazado 450" d="M342.5,6.4l.659,1.334,1.474.213-1.067,1.039.252,1.47L342.5,9.762l-1.319.694.252-1.47-1.07-1.039,1.478-.213Z" transform="translate(-208.358 -3.918)" fill="#c5c8d0"/>
    <path id="Trazado_451" data-name="Trazado 451" d="M399.283,70.76h-.019a.194.194,0,0,0,0,.388h.043a.194.194,0,1,0,0-.388Z" transform="translate(-244.299 -43.317)" fill="#c5c8d0"/>
    <path id="Trazado_452" data-name="Trazado 452" d="M362.578,40.259a1.23,1.23,0,0,0-.446.167.636.636,0,0,1-.256.1.656.656,0,0,0,.066-.353c-.031-.334-.031-.88-.031-.88s-.112.334-.271.411-.469.194-.527.3-.275.112-.365.446a1.163,1.163,0,0,1-.136.415.741.741,0,0,1-.07.112,7.525,7.525,0,0,0,.182-1.466V39.29a2.064,2.064,0,0,0,.194-.182c.07-.116.923-.407,1.043-.64s.182-.388.237-.477a1.621,1.621,0,0,0,.136-.621,5.428,5.428,0,0,0-.093-.853,1.164,1.164,0,0,0-.353.271.318.318,0,0,1-.093.1.722.722,0,0,0-.039-.237c-.12-.295-.3-.686-.3-.686l-.248.388c-.143.287-.287.31-.31.419s-.19.194-.256.423a1.626,1.626,0,0,0-.043.186,13.516,13.516,0,0,0-.237-1.346c.039-.128.085-.411.2-.5a.659.659,0,0,0,.19-.555,2.213,2.213,0,0,0-.078-.527c-.027-.136-.446-.714-.415-.88,0,0-.209.469-.287.652a3.409,3.409,0,0,0-.7-.535c-.1-.178-.209-.365-.318-.547a1.153,1.153,0,0,1,.031-.287,1.311,1.311,0,0,0,.035-.582,4.091,4.091,0,0,1-.225-.415.776.776,0,0,0-.221-.411c-.136-.143-.337-.337-.337-.337s-.054.248-.1.446a.728.728,0,0,0-.14-.054.82.82,0,0,1-.182-.089c-.093-.132-.186-.256-.275-.365a.175.175,0,0,0,.081-.151.178.178,0,0,0-.182-.182.182.182,0,0,0-.182.182.178.178,0,0,0,.182.182.182.182,0,0,0,.1-.031l.206.322a2.488,2.488,0,0,1-.217-.124c-.074-.047-.112.5.054.8H357.5a1.97,1.97,0,0,0-.636-.058c.078,0,.275.217.3.326a.923.923,0,0,0,.333.415,1.907,1.907,0,0,1,.411.31,1.3,1.3,0,0,0,.7.136.423.423,0,0,0,.244.062c.1.175.206.357.306.535a1.894,1.894,0,0,0-.066.477h0c-.136-.023-.605-.136-.605-.136a1.637,1.637,0,0,0,.244.694.163.163,0,0,0-.054.093.221.221,0,0,0,.039.167.594.594,0,0,0,.264.217l-2.277,1.6a30.877,30.877,0,0,0-.225-5.868c.279-.1.2-.229.2-.229l-.1-.268a.229.229,0,0,0,.089,0,.167.167,0,0,0,.128-.054.194.194,0,0,0-.031-.275.532.532,0,0,0-.175-.128l.326-.047.186-.776h0l-.776.26-.019.326a.511.511,0,0,0-.136-.159.2.2,0,0,0-.283,0,.2.2,0,0,0,.031.279.609.609,0,0,0,.283.147.054.054,0,0,0,0,.023l-3.812,4.2-2.536-4.235a6.831,6.831,0,0,0-.415-2.645,1.551,1.551,0,0,0,.043-.423.357.357,0,0,0,.24-.24h0a3.545,3.545,0,0,0-.291-.326.776.776,0,0,0,.136,0h.019a.194.194,0,0,0,0-.388h0a.636.636,0,0,0-.217.027l.209-.252-.388-.706h0l-.388.706.209.252a.489.489,0,0,0-.213-.023.225.225,0,0,0-.159.062.171.171,0,0,0-.054.12.174.174,0,0,0,.054.124.225.225,0,0,0,.159.062h.112c-.066.062-.147.155-.206.221a.271.271,0,0,0-.054.066h0a.066.066,0,0,0,0,.027h0a.365.365,0,0,0,.116.14,5.456,5.456,0,0,0-.589,3.731l-2.191,3.665-3.832-4.223a.566.566,0,0,0,.306-.151.205.205,0,0,0,.074-.155.163.163,0,0,0-.043-.124.175.175,0,0,0-.12-.054.244.244,0,0,0-.159.058.605.605,0,0,0-.14.163V29.47l-.776-.26h0l.186.776.322.047a.574.574,0,0,0-.171.124.229.229,0,0,0-.078.155.167.167,0,0,0,.163.178h0a.263.263,0,0,0,.089,0l-.109.268s-.074.124.2.229a31.584,31.584,0,0,0-.225,5.868l-2.273-1.6a.6.6,0,0,0,.26-.213.244.244,0,0,0,.043-.151.155.155,0,0,0-.054-.109,1.551,1.551,0,0,0,.244-.7s-.469.112-.6.136h0a1.714,1.714,0,0,0-.062-.477c.1-.178.2-.361.3-.535a.419.419,0,0,0,.244-.062,1.288,1.288,0,0,0,.7-.136,1.938,1.938,0,0,1,.415-.31.923.923,0,0,0,.333-.415c.023-.109.225-.326.3-.326a1.97,1.97,0,0,0-.636.058h-.078c.167-.3.124-.849.054-.8a2.161,2.161,0,0,1-.217.124l.206-.322a.171.171,0,0,0,.1.031.182.182,0,0,0,.186-.182.186.186,0,0,0-.368,0,.175.175,0,0,0,.085.151c-.089.109-.182.233-.279.365-.078.039-.147.078-.178.089a.864.864,0,0,0-.143.054c-.05-.2-.1-.446-.1-.446s-.2.194-.333.337a.776.776,0,0,0-.221.411c-.058.167-.171.279-.225.415a1.364,1.364,0,0,0,.031.582c.019.12.031.237.035.287l-.322.547a3.491,3.491,0,0,0-.7.535l-.287-.652c.031.167-.388.745-.415.88a2.211,2.211,0,0,0-.078.527.659.659,0,0,0,.19.555c.112.093.159.388.2.5a13.5,13.5,0,0,0-.237,1.346,1.824,1.824,0,0,0-.047-.186c-.062-.229-.237-.3-.252-.423s-.167-.132-.31-.419c-.089-.151-.248-.388-.248-.388s-.182.388-.3.686a.632.632,0,0,0-.039.237.388.388,0,0,1-.1-.1,1.125,1.125,0,0,0-.349-.271,5.391,5.391,0,0,0-.1.853,1.7,1.7,0,0,0,.136.621c.058.1.12.256.24.477s.97.524,1.043.64a2.4,2.4,0,0,0,.19.182v.229a7.545,7.545,0,0,0,.186,1.466.776.776,0,0,1-.074-.112,1.3,1.3,0,0,1-.132-.415c-.089-.334-.314-.334-.388-.446a1.663,1.663,0,0,0-.524-.3c-.167-.081-.271-.411-.271-.411s0,.547-.031.88a.656.656,0,0,0,.066.353.655.655,0,0,1-.26-.1,1.23,1.23,0,0,0-.446-.167,7.371,7.371,0,0,0,.167.88,1.656,1.656,0,0,0,.337.582,5.424,5.424,0,0,0,.388.415,4.688,4.688,0,0,0,1.249.419.752.752,0,0,1,.388.295c.019.07.035.132.047.178.062.24.143.535.24.853a1.051,1.051,0,0,0-.733-.306c-.19-.031-.939-.221-.939-.221a1.939,1.939,0,0,1,.388.826,2.564,2.564,0,0,0-.869,0,2.893,2.893,0,0,1,.741.838,2.9,2.9,0,0,0,.469.826c.085.054.334.357.5.527s.83.078,1.051.078a2.032,2.032,0,0,1,.508.163,5.471,5.471,0,0,0,.7.729,1.867,1.867,0,0,1-.613-.388c-.109-.147,0,.493.14.7a1.02,1.02,0,0,1-.481-.14c-.182-.143-.023.5.175.683.43.388.388.442.458.469a2.43,2.43,0,0,1-1.016.1c-.155-.089.225.279.477.388.368.136.318.388.718.5a3.021,3.021,0,0,0,1.113.252,4.421,4.421,0,0,1,.605-.151c.244-.027.652-.349,1.117-.388.45.275.908.527,1.354.745l.07.031-.159.023a3.033,3.033,0,0,1-1.016.112c-.151-.081.171.365.388.535a3.433,3.433,0,0,1-.935.07c-.221-.05.446.593.71.667h.031a1.8,1.8,0,0,1-.508.116c-.233,0,.733.613.993.574.845-.12,1.641.167,2.032,0a7.267,7.267,0,0,1,.733-.287c.178-.054.268-.225.388-.3a1.365,1.365,0,0,1,.434-.341v.023a7.708,7.708,0,0,0,.888,0,1.42,1.42,0,0,0-.361.217,9.011,9.011,0,0,0-.9.31A8.327,8.327,0,0,0,345.85,53s.718-.058.83-.058.357-.493.469-.578c.031-.023.213-.116.481-.244a1.164,1.164,0,0,0,.225,1.435c-.194-.225.023-.613.023-.613l.388.244a1.119,1.119,0,0,1,.52-1.551l.081-.031a.365.365,0,0,0,.605.012l.151.058a1.093,1.093,0,0,1,.458,1.513l.388-.244s.213.388.023.613a1.164,1.164,0,0,0,.24-1.4,4,4,0,0,1,.423.213c.112.085.357.578.469.578s.83.058.83.058a8.478,8.478,0,0,0-1.412-1.163,8.573,8.573,0,0,0-.83-.287,1.551,1.551,0,0,0-.388-.24,7.711,7.711,0,0,0,.888,0h0a1.454,1.454,0,0,1,.388.326c.109.078.206.237.388.3s.388.151.733.287,1.187-.128,2.028,0c.264.039,1.226-.589,1-.574a1.8,1.8,0,0,1-.508-.116h.031c.264-.074.931-.717.71-.667a3.424,3.424,0,0,1-.935-.07c.206-.171.527-.617.388-.535a3.056,3.056,0,0,1-1.02-.112l-.155-.023.07-.031c.446-.217.9-.469,1.35-.745.465.058.876.388,1.117.388a4.146,4.146,0,0,1,.605.151,3.021,3.021,0,0,0,1.117-.252c.388-.128.349-.388.714-.5.256-.093.679-.485.477-.388a2.242,2.242,0,0,1-1.012-.1c.066-.027.027-.085.458-.469.2-.182.357-.826.175-.683a1.024,1.024,0,0,1-.485.14c.124-.206.248-.845.14-.7a1.807,1.807,0,0,1-.609.388,5.469,5.469,0,0,0,.7-.729,2.009,2.009,0,0,1,.5-.163c.225,0,.884.089,1.051-.078s.415-.473.5-.527A3.1,3.1,0,0,0,361.1,45a2.784,2.784,0,0,1,.741-.838,2.563,2.563,0,0,0-.869,0,1.885,1.885,0,0,1,.388-.826s-.749.19-.942.221a1.051,1.051,0,0,0-.729.306c.093-.318.175-.613.237-.853a.917.917,0,0,1,.05-.178.775.775,0,0,1,.388-.295,4.421,4.421,0,0,0,1.249-.419c.2-.2.3-.326.388-.415a1.594,1.594,0,0,0,.334-.582,7.386,7.386,0,0,0,.24-.861Zm-1.99-.535a7.168,7.168,0,0,1-.171,1.129,1.113,1.113,0,0,0-.124-.45c-.081-.167-.19-.167-.248-.334s-.244-.225-.357-.361a2.485,2.485,0,0,0-.334-.3,3,3,0,0,0-.058,1.051.6.6,0,0,1,.043.167l-.155-.054c-.144.326.023.659.081.962a2.22,2.22,0,0,0,.19.388c.054.112.031.217.089.3s.171.085.295.2a1.481,1.481,0,0,0,.07.43c-.109.357-.225.721-.349,1.082a.869.869,0,0,0-.136-.388,1.3,1.3,0,0,1-.244-.446c-.112-.3-.334-.3-.388-.605a5.93,5.93,0,0,0-.1.663,1.687,1.687,0,0,0,.047.578,1.021,1.021,0,0,1-.05.388,1.086,1.086,0,0,0-.109-.481.516.516,0,0,1-.054-.334,3.164,3.164,0,0,1-.427.562l-.1-.175c1.454-2.54,1.113-6.884,1.059-7.477.237-.05.194-.171.194-.171l-.047-.287a.224.224,0,0,0,.074.039h.05a.167.167,0,0,0,.1-.027.179.179,0,0,0,.074-.132h0a.822.822,0,0,0,.295.237c.2.058.365.144.388.225h0a13.794,13.794,0,0,1,.279,1.582h0c-.221-.244-.275-.714-.776-.97a1.451,1.451,0,0,1,0,.334,2.028,2.028,0,0,0-.047.434,1.334,1.334,0,0,1-.388-.388,2.328,2.328,0,0,0,.109,1.051c.2.357.2.551.415.628a1.031,1.031,0,0,1,.334.2.714.714,0,0,0,.337.136.1.1,0,0,1,.07.043,1.393,1.393,0,0,0,.047.171A1.435,1.435,0,0,1,360.588,39.724ZM341.3,36.734l1.47,1.036a4.906,4.906,0,0,0,.213,1.629l-1.225,2.044A9.267,9.267,0,0,1,341.3,36.734Zm-2.28-1.183a.427.427,0,0,1,.256-.19.458.458,0,0,1-.1.306.128.128,0,0,1-.078.058.081.081,0,0,1-.074,0,.074.074,0,0,1-.035-.066A.163.163,0,0,1,339.021,35.551Zm4.836-3.405,1.164,1.288a5.321,5.321,0,0,0,.229,2.168l-1.067,1.78c-.244-.535-.772-2.063-.326-5.255Zm4.565-.861a4.743,4.743,0,0,1,1.571,0l.167.279a4.382,4.382,0,0,0-1.9,0Zm.136-.221.652-1.09.648,1.086a4.7,4.7,0,0,0-1.3.008Zm-.45.749a4.134,4.134,0,0,1,2.2,0l.182.3a3.9,3.9,0,0,0-2.556,0Zm-.353.593a3.661,3.661,0,0,1,2.9,0l4.5,7.52h-1.652c-.074-.047-.147-.1-.217-.151a.387.387,0,0,0-.078-.058.477.477,0,0,0-.368-.07.613.613,0,0,0-.194.07,1.276,1.276,0,0,0-.171.109h-.019l-.085-.035a2.121,2.121,0,0,1-.388-.264.718.718,0,0,0-.132-.089.539.539,0,0,0-.244-.058.516.516,0,0,0-.175.027.842.842,0,0,0-.233.1c-.047.031-.093.062-.136.1s0,0-.019,0h0a1.445,1.445,0,0,0-.268-.136,1.51,1.51,0,0,1-.237-.12,2.463,2.463,0,0,1-.306-.221.725.725,0,0,0-.112-.078.621.621,0,0,0-.264-.085.6.6,0,0,0-.186,0,.806.806,0,0,0-.244.089c-.039.019-.078.05-.116.074V36.555c.275,0,.489-.112.489-.229a2.246,2.246,0,0,0-.462-1.09.493.493,0,0,0-.547,0s-.345.2-.167.477c0,0,.035.085.186.027a.2.2,0,0,0,.12-.151v.066c0,.1-.132.151-.14.155a2.583,2.583,0,0,0-.14.531c0,.116.213.213.493.229v2.645h-.027a3.106,3.106,0,0,1-.326-.233.67.67,0,0,0-.12-.085.62.62,0,0,0-.264-.085.706.706,0,0,0-.221,0,.985.985,0,0,0-.252.093,1.381,1.381,0,0,0-.237.155h-.039l-.1-.058a1.044,1.044,0,0,0-.147-.074,1.139,1.139,0,0,1-.2-.089,2.92,2.92,0,0,1-.516-.345l-.047-.035a.8.8,0,0,0-.423-.171H346.1a.946.946,0,0,0-.291.074,1.432,1.432,0,0,0-.3.167,3.21,3.21,0,0,0-.306.252,3.493,3.493,0,0,0-.341.388,4.264,4.264,0,0,0-.291.388v.019a2.928,2.928,0,0,1-.209.229c-.043.047-.093.085-.14.128H343.3Zm6.473,4.953-1.067-1.784a5.387,5.387,0,0,0,.233-2.164l1.163-1.288c.45,3.2-.07,4.72-.33,5.24Zm4.914-2.017a.388.388,0,0,1,.256.194.124.124,0,0,1,.027.093.07.07,0,0,1-.035.066.081.081,0,0,1-.074,0,.128.128,0,0,1-.078-.058A.457.457,0,0,1,359.141,35.342Zm-2.474,6.1-1.222-2.04a4.991,4.991,0,0,0,.209-1.629l1.474-1.036A9.442,9.442,0,0,1,356.667,41.438ZM340.882,43.9l1.163-1.939h13.919l-.07-.039a2.15,2.15,0,0,1-.244-.171,4.784,4.784,0,0,1-.388-.341c-.186-.175-.361-.353-.535-.535-.116-.116-.229-.24-.337-.361a1.954,1.954,0,0,0-.151-.159,2.008,2.008,0,0,0-.3-.24c-.05-.031-.1-.054-.151-.081h1.466l2.308,3.855Zm2.3-3.855h.849a5.706,5.706,0,0,1-.512.388l-.05.031c-.1.058-.19.124-.279.19s-.283.229-.419.349a4.07,4.07,0,0,0-.388.388Zm5.992-.52.1.043a.555.555,0,0,1,.109.05,1.7,1.7,0,0,1,.283.186,2.871,2.871,0,0,1,.388.388c.19.213.388.423.582.624l.248.252c.209.206.423.411.644.605l.043.035h-1.09a.031.031,0,0,1-.031,0l-.074-.058a4.077,4.077,0,0,1-.438-.388c-.14-.143-.326-.3-.485-.454-.345-.337-.679-.686-1-1.043l-.171-.186a3.637,3.637,0,0,0-.388-.388h0a1.136,1.136,0,0,1,.225-.12.543.543,0,0,1,.136-.039.411.411,0,0,1,.244.043.583.583,0,0,1,.1.07,2.128,2.128,0,0,0,.26.19A1.986,1.986,0,0,0,349.178,39.53Zm4.39.725.05.019a1.214,1.214,0,0,1,.124.058,1.9,1.9,0,0,1,.283.217c.054.054.109.109.159.167s.206.229.314.337l.291.3c.116.116.237.233.361.345l.019.019h-.613a.039.039,0,0,1-.039,0c-.116-.093-.225-.19-.334-.291s-.209-.2-.314-.3c-.225-.221-.442-.454-.655-.686-.047-.05-.089-.1-.136-.147a2.272,2.272,0,0,0-.345-.295h0a.492.492,0,0,1,.167-.07.229.229,0,0,1,.167.027l.062.043A1.989,1.989,0,0,0,353.568,40.255Zm-.822.078a2.2,2.2,0,0,1,.233.233c.159.175.322.349.485.52s.3.3.454.446l.186.171h-.869a.023.023,0,0,1-.027,0l-.171-.14c-.159-.136-.314-.275-.462-.423l-.264-.256c-.225-.225-.446-.458-.659-.694l-.143-.159c-.078-.081-.163-.159-.248-.233h0a.776.776,0,0,1,.182-.1.477.477,0,0,1,.128-.031.248.248,0,0,1,.14.031l.078.054a2.292,2.292,0,0,0,.43.283.777.777,0,0,0,.128.058.688.688,0,0,1,.12.058,1.941,1.941,0,0,1,.279.186Zm-1.319,0c.12.136.244.268.368.388l.349.357c.2.2.388.388.613.582l.047.039h-.776a.031.031,0,0,1-.031,0l-.171-.14c-.182-.151-.357-.31-.527-.477l-.275-.268c-.244-.244-.481-.493-.71-.749l-.159-.175a3.047,3.047,0,0,0-.45-.388,2.181,2.181,0,0,0-.24-.143h0a.776.776,0,0,1,.225-.1.446.446,0,0,1,.124,0,.388.388,0,0,1,.143.043l.093.066a2.549,2.549,0,0,0,.539.345.328.328,0,0,0,.085.035l.14.07a2.121,2.121,0,0,1,.287.2,3.079,3.079,0,0,1,.326.3Zm-3.405-.636c.078.074.147.151.217.229l.237.26c.143.155.287.306.434.458.26.268.527.527.807.776.1.1.213.194.326.287h-7.6l.1-.1c.116-.112.229-.221.349-.33a5.762,5.762,0,0,1,.442-.388,2.362,2.362,0,0,1,.287-.2l.085-.058a6.209,6.209,0,0,0,.694-.539,3.842,3.842,0,0,0,.341-.388.069.069,0,0,0,.019-.027,4.411,4.411,0,0,1,.295-.411,4.012,4.012,0,0,1,.271-.3,2.42,2.42,0,0,1,.326-.271,1.294,1.294,0,0,1,.24-.128.71.71,0,0,1,.178-.047.52.52,0,0,1,.306.058.625.625,0,0,1,.116.081,2.682,2.682,0,0,0,.268.2,3.589,3.589,0,0,0,.333.2c.062.027.124.058.186.081a.726.726,0,0,1,.124.058,2.529,2.529,0,0,1,.3.2,3.067,3.067,0,0,1,.31.295ZM346.3,44.405a3.7,3.7,0,0,0,1.229.593,4.613,4.613,0,0,1-3.851-.593Zm2.614,1.551s.186-.954.291-1.551h0c.1.6.287,1.551.287,1.551a1.086,1.086,0,0,1-.287.888,1.1,1.1,0,0,1-.291-.884Zm3.2-1.551h2.622a4.613,4.613,0,0,1-3.851.593A3.7,3.7,0,0,0,352.114,44.405Zm6.675-9.4a.151.151,0,0,1-.027-.1.108.108,0,0,1,.027-.05h.023a.776.776,0,0,1,.233.229.222.222,0,0,1,0,.1A.442.442,0,0,1,358.788,35.008Zm-2.063-4.592a.116.116,0,0,1-.159,0,.477.477,0,0,1-.155-.264h0a.407.407,0,0,1,.279.132A.112.112,0,0,1,356.725,30.416Zm-.217-.752.295-.1h0l-.07.3-.237.035h0Zm-.547.07a.093.093,0,0,1,.062-.027.155.155,0,0,1,.1.043.438.438,0,0,1,.151.256.074.074,0,0,0-.05,0,.493.493,0,0,1-.237-.124.112.112,0,0,1-.027-.147Zm-6.388-3.56h.027c.074,0,.128.043.128.1s-.054.1-.128.1a.45.45,0,0,1-.306-.1.388.388,0,0,1,.279-.112Zm-.365-.582h0l.151.271-.151.186h0l-.151-.194Zm-.388.776h0a.14.14,0,0,1-.1-.039.093.093,0,0,1-.027-.062.07.07,0,0,1,.027-.058.14.14,0,0,1,.1-.039.407.407,0,0,1,.306.1.465.465,0,0,1-.314.093Zm.326,1.819a2.715,2.715,0,0,0,.306-.741,3.925,3.925,0,0,1-.1,1.772l-.14-.233-.461.776a2.536,2.536,0,0,1,.392-1.578ZM342.3,29.737a.171.171,0,0,1,.1-.039.108.108,0,0,1,.062.035.1.1,0,0,1,.019.062.132.132,0,0,1-.05.1.438.438,0,0,1-.275.136h0a.419.419,0,0,1,.14-.295Zm-.683-.167h0l.295.1v.237h0l-.233-.035Zm.136.88a.089.089,0,0,1-.058-.027.07.07,0,0,1-.019-.062.12.12,0,0,1,.05-.1.388.388,0,0,1,.268-.136h.023a.477.477,0,0,1-.163.279.128.128,0,0,1-.1.035Zm-2.125,4.557a.442.442,0,0,1-.256.194.251.251,0,0,1,0-.093.776.776,0,0,1,.237-.237h.023a.078.078,0,0,1,.023.054.128.128,0,0,1-.027.081Zm-1.8,4.309a.916.916,0,0,1,.043-.171.113.113,0,0,1,.074-.043.686.686,0,0,0,.334-.136,1.14,1.14,0,0,1,.334-.2c.217-.078.217-.271.415-.628a2.327,2.327,0,0,0,.112-1.051,1.31,1.31,0,0,1-.388.388,1.806,1.806,0,0,0-.047-.434,1.451,1.451,0,0,1,0-.334c-.493.256-.547.725-.776.97h0a13,13,0,0,1,.279-1.582h0c.023-.081.19-.167.388-.225a.83.83,0,0,0,.291-.233h0a.174.174,0,0,0,.07.132.167.167,0,0,0,.1.027h.05a.194.194,0,0,0,.074-.039l-.047.287s-.039.12.194.171c-.054.593-.388,4.945,1.063,7.481l-.1.171a3.107,3.107,0,0,1-.427-.562.547.547,0,0,1-.054.334,1.086,1.086,0,0,0-.112.481,1.008,1.008,0,0,1-.047-.388,1.687,1.687,0,0,0,.047-.578,5.507,5.507,0,0,0-.1-.663c-.031.3-.252.3-.365.605a1.377,1.377,0,0,1-.248.446.815.815,0,0,0-.132.388c-.124-.361-.244-.725-.349-1.082a1.529,1.529,0,0,0,.066-.43c.128-.116.248-.128.3-.2s.031-.19.089-.3a2.22,2.22,0,0,0,.19-.388c.054-.3.221-.636.078-.962l-.151.054a.823.823,0,0,1,.039-.167,2.908,2.908,0,0,0-.054-1.051,2.486,2.486,0,0,0-.334.3c-.112.136-.3.194-.361.361s-.167.167-.244.334a1.163,1.163,0,0,0-.128.45,8.248,8.248,0,0,1-.171-1.129A2.761,2.761,0,0,1,337.834,39.317Zm12.5,11.464a1.524,1.524,0,0,0-.71.182V50.94a12.713,12.713,0,0,1,.97-1.416,1.214,1.214,0,0,1-.26,1.257Zm-1.482.182a1.551,1.551,0,0,0-.714-.182,1.214,1.214,0,0,1-.24-1.268,12.716,12.716,0,0,1,.97,1.416Zm8.532-3.49a.267.267,0,0,0,.035-.081c.023-.128.143-.388.112-.524a3.378,3.378,0,0,0-.167-.663c-.081-.2-.272-.659-.469-.745l-.217.714a1.583,1.583,0,0,1-.2.527,2.285,2.285,0,0,0-.124.209,1.527,1.527,0,0,1,0-.388c.031-.388-.551-.939-.551-.939a1.97,1.97,0,0,1-.275.939,1.97,1.97,0,0,0-.3.776.943.943,0,0,1-.225.524c-.163.225.019,1.163.043,1.28-.388.229-.756.45-1.117.632-.1.05-.229.109-.361.163.023-.023.05-.043.074-.07a1.9,1.9,0,0,0,.551-.849c.171-.031-.233-.074-.469-.054.14-.206.33-.493.462-.737s-.892.066-.892.066l-.264.1a4.425,4.425,0,0,0,.159-.7c0-.078-.423.058-.756.2a4.873,4.873,0,0,0-.7.5c-.295.19-.334.667-.469.892a1.552,1.552,0,0,0-.171.388.511.511,0,0,0-.2-.388h-.058a2.491,2.491,0,0,0-.33-.047.717.717,0,0,0-.749.31,8.735,8.735,0,0,0-.365,1.163.314.314,0,0,0-.256,0,8.731,8.731,0,0,0-.365-1.163.714.714,0,0,0-.749-.31,2.488,2.488,0,0,0-.33.047h-.054c-.1.05-.2.19-.206.516a1.33,1.33,0,0,0-.206-.516c-.136-.225-.175-.7-.469-.892a4.631,4.631,0,0,0-.7-.5c-.337-.143-.749-.279-.756-.2a4.435,4.435,0,0,0,.159.7l-.264-.1s-1-.264-.892-.066.322.531.458.737c-.233,0-.636.023-.465.054a1.858,1.858,0,0,0,.5.884.629.629,0,0,0,.074.07c-.132-.054-.256-.112-.365-.163a11.331,11.331,0,0,1-1.113-.632c.023-.109.206-1.055.043-1.28a.915.915,0,0,1-.225-.524,1.97,1.97,0,0,0-.3-.776,1.974,1.974,0,0,1-.279-.939s-.582.57-.547.939a1.4,1.4,0,0,1,0,.388c-.05-.1-.1-.175-.12-.209a1.663,1.663,0,0,1-.2-.527c-.054-.19-.213-.714-.213-.714-.2.085-.388.547-.469.745a3.123,3.123,0,0,0-.167.663,1.754,1.754,0,0,0,.109.524.268.268,0,0,0,.035.081,4.385,4.385,0,0,1-1.09-1.113.609.609,0,0,1,.116-.287,2.1,2.1,0,0,0,.415-.64,1.409,1.409,0,0,0,0-.5,4.407,4.407,0,0,1,.081-.493v-.031h.465a7.4,7.4,0,0,0,7.287.958.668.668,0,0,1-.054.124s-.752,1.016.946,1.361h0c1.695-.345.946-1.361.946-1.361a.448.448,0,0,1-.058-.128,7.411,7.411,0,0,0,7.3-.954h.465v.031a4.6,4.6,0,0,1,.078.493,1.5,1.5,0,0,0,0,.5,2.252,2.252,0,0,0,.415.64.539.539,0,0,1,.116.287,4.386,4.386,0,0,1-1.105,1.074Z" transform="translate(-205.561 -15.384)" fill="#c5c8d0"/>
    <path id="Trazado_453" data-name="Trazado 453" d="M384.2,85.19a.163.163,0,1,0,0,.326.163.163,0,0,0,0-.326Z" transform="translate(-235.091 -52.15)" fill="#c5c8d0"/>
    <path id="Trazado_454" data-name="Trazado 454" d="M386.616,88.16a.167.167,0,0,0-.167.167.159.159,0,0,0,.167.167.167.167,0,0,0,.167-.167A.175.175,0,0,0,386.616,88.16Z" transform="translate(-236.573 -53.969)" fill="#c5c8d0"/>
    <path id="Trazado_455" data-name="Trazado 455" d="M392.237,78.77a.167.167,0,0,0-.167.167.175.175,0,0,0,.167.167.171.171,0,0,0,.171-.167.163.163,0,0,0-.171-.167Z" transform="translate(-240.013 -48.22)" fill="#c5c8d0"/>
    <path id="Trazado_456" data-name="Trazado 456" d="M395.52,80.612a.186.186,0,0,0,.186.182.178.178,0,0,0,.182-.182.186.186,0,0,0-.182-.182A.19.19,0,0,0,395.52,80.612Z" transform="translate(-242.125 -49.237)" fill="#c5c8d0"/>
    <path id="Trazado_457" data-name="Trazado 457" d="M396.342,70.248a.178.178,0,0,0,.182-.182.186.186,0,0,0-.182-.186.19.19,0,0,0-.182.186A.186.186,0,0,0,396.342,70.248Z" transform="translate(-242.517 -42.778)" fill="#c5c8d0"/>
    <path id="Trazado_458" data-name="Trazado 458" d="M397.782,61.35a.178.178,0,0,0-.182.182.182.182,0,0,0,.182.182.186.186,0,0,0,.182-.182.179.179,0,0,0-.182-.182Z" transform="translate(-243.399 -37.557)" fill="#c5c8d0"/>
    <path id="Trazado_459" data-name="Trazado 459" d="M400.4,53.087a.178.178,0,0,0,.186-.175.182.182,0,0,0-.186-.182.186.186,0,0,0-.182.182A.182.182,0,0,0,400.4,53.087Z" transform="translate(-245.003 -32.28)" fill="#c5c8d0"/>
    <path id="Trazado_460" data-name="Trazado 460" d="M397.062,53.935a.178.178,0,0,0,.182-.182.182.182,0,1,0-.365,0,.178.178,0,0,0,.182.182Z" transform="translate(-242.958 -32.794)" fill="#c5c8d0"/>
    <path id="Trazado_461" data-name="Trazado 461" d="M393.923,46.565a.2.2,0,1,0-.182.182A.182.182,0,0,0,393.923,46.565Z" transform="translate(-240.908 -28.395)" fill="#c5c8d0"/>
    <path id="Trazado_462" data-name="Trazado 462" d="M396.282,44.748a.182.182,0,0,0,.182-.186.182.182,0,1,0-.365,0,.182.182,0,0,0,.182.186Z" transform="translate(-242.48 -27.168)" fill="#c5c8d0"/>
    <path id="Trazado_463" data-name="Trazado 463" d="M401.29,61.625a.178.178,0,0,0,.182.175.175.175,0,0,0,0-.349A.182.182,0,0,0,401.29,61.625Z" transform="translate(-245.658 -37.618)" fill="#c5c8d0"/>
    <path id="Trazado_464" data-name="Trazado 464" d="M356.083,85.19a.163.163,0,1,0,0,.326.163.163,0,1,0,0-.326Z" transform="translate(-217.883 -52.15)" fill="#c5c8d0"/>
    <path id="Trazado_465" data-name="Trazado 465" d="M353.824,88.327a.171.171,0,0,0-.167-.167.175.175,0,0,0-.167.167.167.167,0,0,0,.167.167.163.163,0,0,0,.167-.167Z" transform="translate(-216.396 -53.969)" fill="#c5c8d0"/>
    <path id="Trazado_466" data-name="Trazado 466" d="M348.027,78.77a.163.163,0,0,0-.167.167.171.171,0,0,0,.167.167.175.175,0,0,0,.167-.167A.167.167,0,0,0,348.027,78.77Z" transform="translate(-212.949 -48.221)" fill="#c5c8d0"/>
    <path id="Trazado_467" data-name="Trazado 467" d="M344.512,80.795a.182.182,0,0,0,.182-.182.186.186,0,0,0-.182-.182.182.182,0,0,0-.182.182.178.178,0,0,0,.182.182Z" transform="translate(-210.788 -49.237)" fill="#c5c8d0"/>
    <path id="Trazado_468" data-name="Trazado 468" d="M343.876,69.88a.19.19,0,0,0-.186.186.182.182,0,0,0,.186.182.186.186,0,0,0,.182-.182.194.194,0,0,0-.182-.186Z" transform="translate(-210.397 -42.778)" fill="#c5c8d0"/>
    <path id="Trazado_469" data-name="Trazado 469" d="M341.106,70.926a.182.182,0,0,0-.182-.186.194.194,0,1,0,0,.388.178.178,0,0,0,.182-.2Z" transform="translate(-208.585 -43.305)" fill="#c5c8d0"/>
    <path id="Trazado_470" data-name="Trazado 470" d="M342.442,61.715a.182.182,0,1,0-.182-.182.182.182,0,0,0,.182.182Z" transform="translate(-209.521 -37.557)" fill="#c5c8d0"/>
    <path id="Trazado_471" data-name="Trazado 471" d="M339.812,53.087a.182.182,0,0,0,.182-.175.186.186,0,0,0-.182-.182.182.182,0,0,0-.182.182A.178.178,0,0,0,339.812,53.087Z" transform="translate(-207.911 -32.28)" fill="#c5c8d0"/>
    <path id="Trazado_472" data-name="Trazado 472" d="M343.174,53.57a.186.186,0,0,0-.175.167.175.175,0,0,0,.182.182.178.178,0,0,0,.182-.182A.186.186,0,0,0,343.174,53.57Z" transform="translate(-209.974 -32.794)" fill="#c5c8d0"/>
    <path id="Trazado_473" data-name="Trazado 473" d="M346.26,46.565a.178.178,0,0,0,.182.182.182.182,0,1,0,0-.361.178.178,0,0,0-.182.178Z" transform="translate(-211.97 -28.395)" fill="#c5c8d0"/>
    <path id="Trazado_474" data-name="Trazado 474" d="M343.942,44.748a.182.182,0,1,0-.13-.055A.182.182,0,0,0,343.942,44.748Z" transform="translate(-210.439 -27.168)" fill="#c5c8d0"/>
    <path id="Trazado_475" data-name="Trazado 475" d="M338.941,61.624a.182.182,0,0,0-.186-.175.178.178,0,0,0-.175.175.175.175,0,0,0,.175.175.178.178,0,0,0,.186-.175Z" transform="translate(-207.268 -37.618)" fill="#c5c8d0"/>
    <path id="Trazado_476" data-name="Trazado 476" d="M364.813,54.933c.078,0,.1,0,.136.078H365l-.047-.112.318-.132-.035-.066-.442.2Z" transform="translate(-223.313 -33.486)" fill="#c5c8d0"/>
    <path id="Trazado_477" data-name="Trazado 477" d="M364.476,53.657h-.066l.058.244.271-.023v-.047a.112.112,0,0,1-.074-.078.1.1,0,0,1,.081-.128.1.1,0,0,1,.132.07c0,.058,0,.1-.054.12v.062a.14.14,0,0,0,.1-.182.167.167,0,0,0-.209-.136.151.151,0,0,0-.116.194.136.136,0,0,0,.054.085h-.136Z" transform="translate(-223.081 -32.784)" fill="#c5c8d0"/>
    <path id="Trazado_478" data-name="Trazado 478" d="M364.422,52.215a.124.124,0,0,0,.128-.093l.031-.1c.023-.081.039-.1.1-.1s.078.089.07.136-.039.136-.128.128v.062a.144.144,0,0,0,.136-.039.213.213,0,0,0,.058-.144c0-.085-.019-.2-.136-.206a.116.116,0,0,0-.136.1l-.047.14a.078.078,0,0,1-.074.058c-.07,0-.078-.081-.07-.128a.1.1,0,0,1,.109-.112V51.85c-.054,0-.159,0-.175.182a.155.155,0,0,0,.136.182Z" transform="translate(-223.003 -31.741)" fill="#c5c8d0"/>
    <path id="Trazado_479" data-name="Trazado 479" d="M365.05,50.581l-.058-.016-.1.287-.159-.054.089-.256-.054-.023-.089.264-.143-.05.1-.279-.066-.023-.109.353.477.151Z" transform="translate(-223.111 -30.872)" fill="#c5c8d0"/>
    <path id="Trazado_480" data-name="Trazado 480" d="M365.45,49.8l-.186-.112.081-.132a.147.147,0,0,0-.047-.213.116.116,0,0,0-.1,0,.167.167,0,0,0-.1.074l-.1.175.419.264Zm-.388-.24.078-.112a.074.074,0,0,1,.074-.047.07.07,0,0,1,.035,0,.078.078,0,0,1,0,.12l-.062.1Z" transform="translate(-223.442 -30.199)" fill="#c5c8d0"/>
    <path id="Trazado_481" data-name="Trazado 481" d="M365.829,48.393l.318.3.039-.047-.31-.3.12-.128-.047-.039-.279.295.039.039Z" transform="translate(-223.852 -29.494)" fill="#c5c8d0"/>
    <path id="Trazado_482" data-name="Trazado 482" d="M367.023,48.286l-.3-.4-.05.039.295.4Z" transform="translate(-224.464 -29.317)" fill="#c5c8d0"/>
    <path id="Trazado_483" data-name="Trazado 483" d="M367.745,47.608l-.023-.047-.271.132-.07-.14.237-.128-.023-.058-.244.128-.074-.136.264-.136-.023-.054-.326.167.229.446Z" transform="translate(-224.783 -28.876)" fill="#c5c8d0"/>
    <path id="Trazado_484" data-name="Trazado 484" d="M368.655,47.351l-.062-.295a.505.505,0,0,1-.031-.12l.229.388h.066l.047-.434a.494.494,0,0,1,.023.116l.062.287h.066l-.1-.493-.093.023-.05.446-.229-.388h-.1l.112.485Z" transform="translate(-225.572 -28.65)" fill="#c5c8d0"/>
    <path id="Trazado_485" data-name="Trazado 485" d="M370.373,47.216c.112,0,.178-.05.178-.132a.116.116,0,0,0-.085-.124.109.109,0,0,0,.066-.1.126.126,0,0,0-.132-.136h-.217l-.023.5Zm-.116-.434h.109c.074,0,.1.019.1.07s-.043.07-.1.062h-.116Zm.109.217c.05,0,.1,0,.1.081s-.039.081-.1.081h-.124V47Z" transform="translate(-226.601 -28.601)" fill="#c5c8d0"/>
    <path id="Trazado_486" data-name="Trazado 486" d="M370.22,46.7Z" transform="translate(-226.637 -28.588)" fill="#c5c8d0"/>
    <path id="Trazado_487" data-name="Trazado 487" d="M371.426,47.131l.163.047c.078.023.07.07.062.109a.276.276,0,0,0-.023.12l.081.023h0v-.144c.023-.062,0-.085-.023-.1s.081-.027.1-.1a.161.161,0,0,0-.12-.175l-.221-.074-.132.489h.062Zm.081-.213.143.054c.031,0,.081,0,.058.089s-.062.062-.109.05l-.14-.039Z" transform="translate(-227.305 -28.674)" fill="#c5c8d0"/>
    <path id="Trazado_488" data-name="Trazado 488" d="M372.778,47.949l.023-.047-.252-.151.078-.143.24.136.031-.047-.237-.143.078-.128.256.151.031-.054-.318-.182-.248.427Z" transform="translate(-228.009 -28.98)" fill="#c5c8d0"/>
    <path id="Trazado_489" data-name="Trazado 489" d="M373.866,48.983a.229.229,0,0,0,.333,0,.213.213,0,0,0,.05-.322l-.132-.151-.388.318Zm.322-.275c.054.066.047.132-.043.213s-.167.07-.221,0l-.074-.085.264-.225Z" transform="translate(-228.786 -29.696)" fill="#c5c8d0"/>
    <path id="Trazado_490" data-name="Trazado 490" d="M374.677,50.267l.058-.023-.136-.271.151-.07.12.244.054-.031-.128-.237.144-.074.128.264.058-.023-.171-.326-.446.221Z" transform="translate(-229.264 -30.437)" fill="#c5c8d0"/>
    <path id="Trazado_491" data-name="Trazado 491" d="M375.461,51.816l-.341.05v.062l.485-.074v-.047c-.078,0-.085-.031-.112-.109h-.047Z" transform="translate(-229.637 -31.649)" fill="#c5c8d0"/>
    <path id="Trazado_492" data-name="Trazado 492" d="M375.54,52.657a.1.1,0,0,0-.1.07.136.136,0,0,0-.233-.05.174.174,0,0,0-.043.12.144.144,0,0,0,.143.163.113.113,0,0,0,.128-.066.093.093,0,0,0,.1.062.125.125,0,0,0,.132-.144.132.132,0,0,0-.128-.155Zm-.229.237c-.07,0-.078-.058-.078-.1a.081.081,0,0,1,.089-.089.093.093,0,0,1-.012.186Zm.229,0a.1.1,0,0,1-.074-.093.074.074,0,0,1,.074-.07c.035,0,.074,0,.066.081S375.567,52.893,375.54,52.893Z" transform="translate(-229.666 -32.218)" fill="#c5c8d0"/>
    <path id="Trazado_493" data-name="Trazado 493" d="M375.431,53.619v.062a.094.094,0,0,1,.089.12c-.023.089-.074.089-.1.07a.208.208,0,0,1-.1-.109v-.074a.225.225,0,0,0-.167-.159l-.081.326h.058l.062-.26a.12.12,0,0,1,.074.1v.058c.023.085.047.151.128.167a.147.147,0,0,0,.182-.112.163.163,0,0,0-.144-.19Z" transform="translate(-229.606 -32.769)" fill="#c5c8d0"/>
    <path id="Trazado_494" data-name="Trazado 494" d="M375.092,54.92l-.05.1-.31-.151-.031.066.446.206v-.047c-.062-.05-.054-.081-.023-.159Z" transform="translate(-229.38 -33.59)" fill="#c5c8d0"/>
    <path id="Trazado_495" data-name="Trazado 495" d="M368.83,57.1h.054l.365-1.509h-.054l-.361,1.493Z" transform="translate(-225.786 -34.03)" fill="#c5c8d0"/>
    <path id="Trazado_496" data-name="Trazado 496" d="M368.7,56.4h.05l.306-.892H369l-.3.876Z" transform="translate(-225.707 -33.982)" fill="#c5c8d0"/>
    <path id="Trazado_497" data-name="Trazado 497" d="M367.35,56.885l.05.023.706-1.485-.05-.023-.7,1.474Z" transform="translate(-224.881 -33.914)" fill="#c5c8d0"/>
    <path id="Trazado_498" data-name="Trazado 498" d="M366.987,56.558l.776-1.264-.047-.023-.776,1.26Z" transform="translate(-224.63 -33.835)" fill="#c5c8d0"/>
    <path id="Trazado_499" data-name="Trazado 499" d="M365.85,56.446h0l.043.031,1.094-1.392a.335.335,0,0,1-.043-.035Z" transform="translate(-223.962 -33.7)" fill="#c5c8d0"/>
    <path id="Trazado_500" data-name="Trazado 500" d="M365.951,56.015l.977-1.07h0l-.043-.035-.966,1.074Z" transform="translate(-224.005 -33.614)" fill="#c5c8d0"/>
    <path id="Trazado_501" data-name="Trazado 501" d="M365.992,54.733a.187.187,0,0,0-.035-.043l-1.427,1.257.035.043,1.423-1.253Z" transform="translate(-223.154 -33.48)" fill="#c5c8d0"/>
    <path id="Trazado_502" data-name="Trazado 502" d="M366.851,54.483h0l-.035-.043-.756.531h0l.031.047Z" transform="translate(-224.091 -33.327)" fill="#c5c8d0"/>
    <path id="Trazado_503" data-name="Trazado 503" d="M367.055,54.227a.287.287,0,0,1-.027-.047l-.527.295.027.047Z" transform="translate(-224.36 -33.167)" fill="#c5c8d0"/>
    <path id="Trazado_504" data-name="Trazado 504" d="M366.3,54.174l.023.047.555-.24-.023-.05Z" transform="translate(-224.238 -33.014)" fill="#c5c8d0"/>
    <path id="Trazado_505" data-name="Trazado 505" d="M366.14,53.826l.015.054.566-.182.012,0-.016-.054Z" transform="translate(-224.14 -32.837)" fill="#c5c8d0"/>
    <path id="Trazado_506" data-name="Trazado 506" d="M366.653,53.41v-.05l-.593.128v.054Z" transform="translate(-224.091 -32.665)" fill="#c5c8d0"/>
    <path id="Trazado_507" data-name="Trazado 507" d="M365.94,53.126v.054l.613-.066V53.06Z" transform="translate(-224.017 -32.482)" fill="#c5c8d0"/>
    <path id="Trazado_508" data-name="Trazado 508" d="M365.92,52.814h.617V52.76h-.617Z" transform="translate(-224.005 -32.298)" fill="#c5c8d0"/>
    <path id="Trazado_509" data-name="Trazado 509" d="M366,52.394l.6.05h0V52.39l-.6-.05h0Z" transform="translate(-224.054 -32.041)" fill="#c5c8d0"/>
    <path id="Trazado_510" data-name="Trazado 510" d="M366,51.9l.605.132V51.98L366,51.84Z" transform="translate(-224.054 -31.735)" fill="#c5c8d0"/>
    <path id="Trazado_511" data-name="Trazado 511" d="M366.108,51.474l.574.19h0a.288.288,0,0,1,0-.054l-.582-.19Z" transform="translate(-224.115 -31.478)" fill="#c5c8d0"/>
    <path id="Trazado_512" data-name="Trazado 512" d="M366.273,51l-.023.05.566.24.023-.047L366.285,51Z" transform="translate(-224.207 -31.221)" fill="#c5c8d0"/>
    <path id="Trazado_513" data-name="Trazado 513" d="M366.45,50.63l.539.295h0a.324.324,0,0,1,.027-.05l-.543-.295Z" transform="translate(-224.33 -30.964)" fill="#c5c8d0"/>
    <path id="Trazado_514" data-name="Trazado 514" d="M366.71,50.263l.493.349.035-.039-.493-.353Z" transform="translate(-224.489 -30.743)" fill="#c5c8d0"/>
    <path id="Trazado_515" data-name="Trazado 515" d="M367.043,49.86l-.043.054.45.388h0l.035-.043-.442-.388Z" transform="translate(-224.666 -30.523)" fill="#c5c8d0"/>
    <path id="Trazado_516" data-name="Trazado 516" d="M367.379,49.54l-.039.039.411.43.043-.035-.407-.427Z" transform="translate(-224.874 -30.327)" fill="#c5c8d0"/>
    <path id="Trazado_517" data-name="Trazado 517" d="M367.723,49.25l-.043.035.388.469.043-.035-.365-.458Z" transform="translate(-225.083 -30.149)" fill="#c5c8d0"/>
    <path id="Trazado_518" data-name="Trazado 518" d="M368.167,49l-.047.027.295.508h0l.05-.023-.295-.5Z" transform="translate(-225.352 -29.996)" fill="#c5c8d0"/>
    <path id="Trazado_519" data-name="Trazado 519" d="M368.557,48.82l-.047.023.244.531.05-.023-.24-.52Z" transform="translate(-225.591 -29.886)" fill="#c5c8d0"/>
    <path id="Trazado_520" data-name="Trazado 520" d="M369,48.66l-.05.019.194.555h.05l-.19-.539Z" transform="translate(-225.86 -29.788)" fill="#c5c8d0"/>
    <path id="Trazado_521" data-name="Trazado 521" d="M369.464,48.52h-.054l.12.582h.054l-.12-.57Z" transform="translate(-226.141 -29.702)" fill="#c5c8d0"/>
    <path id="Trazado_522" data-name="Trazado 522" d="M369.914,49.063h.054l-.054-.593h-.054Z" transform="translate(-226.417 -29.672)" fill="#c5c8d0"/>
    <path id="Trazado_523" data-name="Trazado 523" d="M370.354,48.45H370.3v.593h.054v-.582Z" transform="translate(-226.686 -29.66)" fill="#c5c8d0"/>
    <path id="Trazado_524" data-name="Trazado 524" d="M370.6,49.051h.054l.058-.6h-.054Z" transform="translate(-226.87 -29.66)" fill="#c5c8d0"/>
    <path id="Trazado_525" data-name="Trazado 525" d="M370.92,49.14h0l.12-.59h-.054l-.116.59Z" transform="translate(-227.035 -29.721)" fill="#c5c8d0"/>
    <path id="Trazado_526" data-name="Trazado 526" d="M371.41,48.679l-.05-.019-.19.551h.054l.186-.551Z" transform="translate(-227.219 -29.788)" fill="#c5c8d0"/>
    <path id="Trazado_527" data-name="Trazado 527" d="M371.757,48.87h-.047l-.24.531h0l.05.027.237-.531Z" transform="translate(-227.403 -29.917)" fill="#c5c8d0"/>
    <path id="Trazado_528" data-name="Trazado 528" d="M372.011,48.99l-.287.508,0,.012.047.027.291-.52Z" transform="translate(-227.556 -29.99)" fill="#c5c8d0"/>
    <path id="Trazado_529" data-name="Trazado 529" d="M372,49.735h0l.039.035.365-.469h0l-.047-.031Z" transform="translate(-227.727 -30.162)" fill="#c5c8d0"/>
    <path id="Trazado_530" data-name="Trazado 530" d="M372.19,49.972l.043.035.4-.43.008-.008-.039-.039Z" transform="translate(-227.843 -30.321)" fill="#c5c8d0"/>
    <rect id="Rectángulo_39" data-name="Rectángulo 39" width="0.597" height="0.054" transform="matrix(0.745, -0.667, 0.667, 0.745, 144.437, 19.736)" fill="#c5c8d0"/>
    <path id="Trazado_531" data-name="Trazado 531" d="M372.63,50.553h0l.035.039.469-.345h0L373.1,50.2Z" transform="translate(-228.113 -30.731)" fill="#c5c8d0"/>
    <path id="Trazado_532" data-name="Trazado 532" d="M372.79,50.871h0a.294.294,0,0,0,.027.047l.516-.291h0l-.027-.047Z" transform="translate(-228.211 -30.964)" fill="#c5c8d0"/>
    <path id="Trazado_533" data-name="Trazado 533" d="M372.92,51.237h0s.019.035.027.05l.535-.237h0l-.019-.05Z" transform="translate(-228.29 -31.221)" fill="#c5c8d0"/>
    <path id="Trazado_534" data-name="Trazado 534" d="M373,51.616v.05l.551-.186h0l-.019-.05Z" transform="translate(-228.339 -31.484)" fill="#c5c8d0"/>
    <path id="Trazado_535" data-name="Trazado 535" d="M373.1,51.952v.054l.586-.132V51.82Z" transform="translate(-228.4 -31.723)" fill="#c5c8d0"/>
    <path id="Trazado_536" data-name="Trazado 536" d="M373.15,52.377v.054l.574-.05h0v-.05Z" transform="translate(-228.431 -32.035)" fill="#c5c8d0"/>
    <path id="Trazado_537" data-name="Trazado 537" d="M373.174,52.734h.589V52.68h-.593S373.174,52.723,373.174,52.734Z" transform="translate(-228.443 -32.249)" fill="#c5c8d0"/>
    <path id="Trazado_538" data-name="Trazado 538" d="M373.13,53.33v.054l.57.128v-.05Z" transform="translate(-228.419 -32.647)" fill="#c5c8d0"/>
    <path id="Trazado_539" data-name="Trazado 539" d="M373.74,53.132v-.054L373.158,53h0a.159.159,0,0,0,0,.043l.574.062Z" transform="translate(-228.435 -32.445)" fill="#c5c8d0"/>
    <path id="Trazado_540" data-name="Trazado 540" d="M373.593,53.863v-.05l-.543-.182h0a.212.212,0,0,1,0,.047l.547.182Z" transform="translate(-228.37 -32.831)" fill="#c5c8d0"/>
    <path id="Trazado_541" data-name="Trazado 541" d="M372.963,53.91a.258.258,0,0,1-.023.047l.524.237h0l.023-.047Z" transform="translate(-228.303 -33.002)" fill="#c5c8d0"/>
    <path id="Trazado_542" data-name="Trazado 542" d="M372.768,54.182l.477.279h0l.027-.047-.5-.295A.319.319,0,0,0,372.768,54.182Z" transform="translate(-228.196 -33.131)" fill="#c5c8d0"/>
    <path id="Trazado_543" data-name="Trazado 543" d="M372.6,54.453l.741.539.031-.043-.737-.539a.338.338,0,0,1-.035.043Z" transform="translate(-228.094 -33.308)" fill="#c5c8d0"/>
    <path id="Trazado_544" data-name="Trazado 544" d="M372.435,54.66a.315.315,0,0,1-.035.039l1.365,1.257h0l.039-.039-1.369-1.249Z" transform="translate(-227.972 -33.461)" fill="#c5c8d0"/>
    <path id="Trazado_545" data-name="Trazado 545" d="M372.19,54.945l.931,1.07.039-.035-.927-1.07h0l-.031.027Z" transform="translate(-227.843 -33.614)" fill="#c5c8d0"/>
    <path id="Trazado_546" data-name="Trazado 546" d="M372,55.085l1.047,1.385.043-.031-1.051-1.388Z" transform="translate(-227.727 -33.7)" fill="#c5c8d0"/>
    <path id="Trazado_547" data-name="Trazado 547" d="M371.7,55.245l.729,1.245h0l.047-.027-.737-1.253Z" transform="translate(-227.543 -33.798)" fill="#c5c8d0"/>
    <path id="Trazado_548" data-name="Trazado 548" d="M371.45,55.379l.671,1.462h0l.05-.023-.683-1.478Z" transform="translate(-227.39 -33.877)" fill="#c5c8d0"/>
    <path id="Trazado_549" data-name="Trazado 549" d="M371.15,55.512l.287.873h.05L371.2,55.5Z" transform="translate(-227.207 -33.975)" fill="#c5c8d0"/>
    <path id="Trazado_550" data-name="Trazado 550" d="M370.86,55.61l.353,1.493h.05l-.349-1.493Z" transform="translate(-227.029 -34.043)" fill="#c5c8d0"/>
    <path id="Trazado_551" data-name="Trazado 551" d="M357.159,81.19s-.167.2-.074.361a.275.275,0,0,0,.423,0S357.1,81.558,357.159,81.19Z" transform="translate(-218.58 -49.702)" fill="#c5c8d0"/>
    <path id="Trazado_552" data-name="Trazado 552" d="M382.56,81.551a.275.275,0,0,0,.423,0c.1-.163-.074-.361-.074-.361C382.971,81.558,382.56,81.551,382.56,81.551Z" transform="translate(-234.192 -49.702)" fill="#c5c8d0"/>
    <path id="Trazado_553" data-name="Trazado 553" d="M360.8,80.574l-.085-.054-.221.388.089.054a.2.2,0,0,0,.291-.078.194.194,0,0,0-.074-.31Z" transform="translate(-220.681 -49.292)" fill="#c5c8d0"/>
    <path id="Trazado_554" data-name="Trazado 554" d="M362.652,81.59a.215.215,0,1,0,.1.287.209.209,0,0,0-.1-.287Z" transform="translate(-221.819 -49.935)" fill="#c5c8d0"/>
    <path id="Trazado_555" data-name="Trazado 555" d="M369.184,83.279a.206.206,0,0,0-.217.206.209.209,0,1,0,.415,0A.206.206,0,0,0,369.184,83.279Z" transform="translate(-225.869 -50.981)" fill="#c5c8d0"/>
    <path id="Trazado_556" data-name="Trazado 556" d="M374.544,83.343l-.124.035.05.186.124-.035a.089.089,0,0,0,.07-.116.093.093,0,0,0-.12-.07Z" transform="translate(-229.209 -51.017)" fill="#c5c8d0"/>
    <path id="Trazado_557" data-name="Trazado 557" d="M374.487,82.822a.081.081,0,0,0-.1-.058l-.112.031.043.163.116-.031a.078.078,0,0,0,.058-.1Z" transform="translate(-229.117 -50.663)" fill="#c5c8d0"/>
    <path id="Trazado_558" data-name="Trazado 558" d="M376.593,81.993a.178.178,0,0,0-.078,0l-.085.035.074.19.109-.043a.093.093,0,0,0,.054-.132A.1.1,0,0,0,376.593,81.993Z" transform="translate(-230.439 -50.191)" fill="#c5c8d0"/>
    <path id="Trazado_559" data-name="Trazado 559" d="M378.716,81.221l.031.19.151-.085-.14-.128-.058-.058h0S378.712,81.19,378.716,81.221Z" transform="translate(-231.829 -49.671)" fill="#c5c8d0"/>
    <path id="Trazado_560" data-name="Trazado 560" d="M367.238,80.4l-.178-.07a.659.659,0,0,1,.388-.035l-.221-.2a1.443,1.443,0,0,0-1.629-.206,6.12,6.12,0,0,1-6.438,0,1.443,1.443,0,0,0-1.629.206l-.221.2a.675.675,0,0,1,.388.035l-.182.07c.229.089.136.256.136.256l.279-.244a9.936,9.936,0,0,1,1.222.613,6.368,6.368,0,0,0,3.219.814h0a6.345,6.345,0,0,0,3.219-.814,9.933,9.933,0,0,1,1.222-.613l.279.244S367.01,80.49,367.238,80.4Zm-8.637.12-.159-.1.287-.489.163.1a.284.284,0,1,1-.291.489Zm.388.225-.07-.035.268-.5.07.035Zm.341.182a.291.291,0,0,1-.136-.388.287.287,0,0,1,.388-.14.295.295,0,0,1-.252.531Zm.776-.171a.205.205,0,0,0-.1-.089.089.089,0,0,0-.124.039c-.043.109.225.178.155.353a.159.159,0,0,1-.225.081.26.26,0,0,1-.147-.136l.066-.039a.209.209,0,0,0,.112.109.085.085,0,0,0,.12-.043c.043-.116-.221-.19-.159-.353a.171.171,0,0,1,.229-.081.236.236,0,0,1,.128.112Zm.5.628a.209.209,0,0,1-.163-.264l.1-.353h.074l-.093.357a.132.132,0,0,0,.1.171.136.136,0,0,0,.178-.1l.093-.353h.078l-.093.353a.206.206,0,0,1-.272.186Zm.807.159h-.078l-.182-.411a.914.914,0,0,1-.035-.089h0v.081l-.066.365h-.081l.1-.562h.078l.186.407a.831.831,0,0,1,.031.089h0a.631.631,0,0,1,0-.081l.085-.345h.078Zm.213.023h-.078l.066-.562h.078Zm.388.043a.295.295,0,0,1,.027-.586.279.279,0,0,1,.275.3.287.287,0,0,1-.295.291Zm.776,0-.268-.357a.817.817,0,0,1-.05-.081h0v.45h-.081l-.023-.566h.078l.268.361a.553.553,0,0,1,.05.078h0v-.469h.081l.023.566Zm.527-.054L363.24,81h.078l.078.493.252-.043v.07Zm.388-.066-.116-.558h.081l.112.555Zm.411-.1-.2.05-.14-.551.19-.05a.143.143,0,0,1,.2.1.14.14,0,0,1-.039.136h0a.14.14,0,0,1,.124.112.163.163,0,0,1-.12.2Zm.283-.081-.178-.539.314-.1.019.066-.237.081.054.167.194-.062.023.066-.194.062.058.175.252-.081.019.066Zm.714-.26-.194-.163-.112.043.085.209-.074.031-.213-.527.163-.062a.24.24,0,0,1,.1-.027.151.151,0,0,1,.147.1.159.159,0,0,1-.039.182h.027L365.2,81Zm.279-.124-.213-.454-.175.085-.031-.062.427-.2.027.062-.175.085.213.45Zm.57-.295-.128-.116-.186.1.027.171-.074.039-.074-.605.074-.039.45.388Zm.291-.175-.159.1-.3-.481.159-.1a.268.268,0,0,1,.388.089.26.26,0,0,1-.07.388Z" transform="translate(-218.734 -48.808)" fill="#c5c8d0"/>
    <path id="Trazado_561" data-name="Trazado 561" d="M379.589,80.47l-.089.054.229.365.085-.054a.214.214,0,0,0-.225-.365Z" transform="translate(-232.318 -49.241)" fill="#c5c8d0"/>
  </g>
</svg>
